<?xml version="1.0" encoding="utf-8"?>
<!-- Generator: Adobe Illustrator 16.0.0, SVG Export Plug-In . SVG Version: 6.00 Build 0)  -->
<!DOCTYPE svg PUBLIC "-//W3C//DTD SVG 1.1//EN" "http://www.w3.org/Graphics/SVG/1.1/DTD/svg11.dtd">
<svg version="1.1" id="Calque_1" xmlns="http://www.w3.org/2000/svg" xmlns:xlink="http://www.w3.org/1999/xlink" x="0px" y="0px"
	 width="108px" height="132px" viewBox="0 0 108 132" enable-background="new 0 0 108 132" xml:space="preserve">
<g>
	<path fill="#EF3230" d="M24,107.514v-8.979h5.555v1.497h-3.855v2.386h3.558v1.496h-3.558v3.601H24z"/>
	<path fill="#EF3230" d="M37.561,104.885c0,1.495-0.862,2.764-3.396,2.764c-2.536,0-3.398-1.269-3.398-2.764v-3.721
		c0-1.496,0.862-2.765,3.398-2.765c2.533,0,3.396,1.269,3.396,2.765V104.885z M32.466,104.79c0,0.849,0.431,1.361,1.699,1.361
		c1.266,0,1.696-0.513,1.696-1.361v-3.532c0-0.85-0.431-1.361-1.696-1.361c-1.269,0-1.699,0.512-1.699,1.361V104.79z"/>
	<path fill="#EF3230" d="M44.76,107.514l-2.062-2.966h-1.618v2.966h-1.698v-8.979h3.681c2.09,0,2.857,0.85,2.857,2.428v1.173
		c0,1.078-0.404,1.833-1.35,2.17l2.226,3.209H44.76z M42.993,100.031h-1.914v3.047h1.914c0.931,0,1.228-0.338,1.228-1.093v-0.891
		C44.221,100.342,43.897,100.031,42.993,100.031z"/>
	<path fill="#EF3230" d="M47.738,101.003c0-1.646,0.958-2.604,3.194-2.604c0.836,0,1.699,0.108,2.441,0.297l-0.189,1.47
		c-0.729-0.135-1.578-0.229-2.197-0.229c-1.174,0-1.55,0.405-1.55,1.362v3.451c0,0.956,0.376,1.36,1.55,1.36
		c0.619,0,1.469-0.094,2.197-0.229l0.189,1.47c-0.742,0.188-1.605,0.297-2.441,0.297c-2.236,0-3.194-0.958-3.194-2.603V101.003z"/>
	<path fill="#EF3230" d="M54.586,101.003c0-1.646,0.957-2.604,3.195-2.604c0.836,0,1.698,0.108,2.44,0.297l-0.189,1.47
		c-0.728-0.135-1.577-0.229-2.197-0.229c-1.173,0-1.55,0.405-1.55,1.362v3.451c0,0.956,0.377,1.36,1.55,1.36
		c0.62,0,1.47-0.094,2.197-0.229l0.189,1.47c-0.742,0.188-1.604,0.297-2.44,0.297c-2.238,0-3.195-0.958-3.195-2.603V101.003z"/>
	<path fill="#EF3230" d="M66.975,105.652h-3.33l-0.566,1.861h-1.78l2.833-8.979h2.372l2.831,8.979h-1.779L66.975,105.652z
		 M64.062,104.185h2.479l-1.226-4.248L64.062,104.185z"/>
	<path fill="#EF3230" d="M73.121,107.648c-1.025,0-2.211-0.257-2.804-0.539l0.296-1.335c0.836,0.257,1.646,0.417,2.534,0.417
		c1.227,0,1.43-0.255,1.43-1.118c0-0.998-0.027-1.079-1.645-1.43c-2.172-0.484-2.467-0.903-2.467-2.804c0-1.632,0.74-2.44,3.02-2.44
		c0.781,0,1.726,0.096,2.615,0.297l-0.189,1.429c-0.741-0.161-1.618-0.269-2.399-0.269c-1.146,0-1.348,0.242-1.348,1.024
		c0,1.024,0.026,1.051,1.577,1.429c2.413,0.58,2.535,0.971,2.535,2.764C76.276,106.771,75.776,107.648,73.121,107.648z"/>
	<path fill="#EF3230" d="M79.794,100.031h-2.508v-1.497H84v1.497h-2.508v7.482h-1.698V100.031z"/>
</g>
<rect x="35.999" y="24" fill="#EF3230" width="11.999" height="12"/>
<rect x="48" y="24" fill="#33CCCC" width="12" height="12.002"/>
<rect x="60" y="24" width="12" height="11.995"/>
<rect x="60" y="48" fill="#33CCCC" width="12" height="11.995"/>
<rect x="35.999" y="60" width="11.999" height="12"/>
<rect x="35.999" y="72" fill="#888888" width="11.999" height="12"/>
<rect x="60" y="36" fill="#BBBBBC" width="12" height="11.995"/>
<rect x="24" y="24" fill="#BBBBBC" width="11.999" height="12"/>
<rect x="24" y="36" fill="#BBBBBC" width="11.999" height="12"/>
<rect x="24" y="48" fill="#BBBBBC" width="11.999" height="12"/>
<rect x="24" y="60" fill="#BBBBBC" width="11.999" height="12"/>
<rect x="24" y="72" fill="#33CCCC" width="11.999" height="12"/>
<rect x="72.001" y="24" fill="#888888" width="11.999" height="12"/>
<rect x="72.001" y="36" fill="#BBBBBC" width="11.999" height="12"/>
<rect x="72.001" y="48" fill="#888888" width="11.999" height="12"/>
<rect x="72.001" y="60" fill="#BBBBBC" width="11.999" height="12"/>
<rect x="72.001" y="72" fill="#BBBBBC" width="11.999" height="12"/>
<rect x="60" y="60" fill="#888888" width="12" height="11.995"/>
<rect x="48" y="72" fill="#888888" width="12.001" height="12"/>
<rect x="60" y="72" fill="#BBBBBC" width="12" height="11.995"/>
<rect x="48" y="36" fill="#BBBBBC" width="12" height="11.999"/>
<rect x="48" y="60" fill="#888888" width="12.001" height="12"/>
<rect x="35.999" y="36" width="11.999" height="12"/>
<rect x="48" y="48" fill="#EF3230" width="12" height="12.002"/>
<rect x="35.999" y="48" fill="#EF3230" width="11.999" height="12"/>
</svg>
