<?xml version="1.0" encoding="utf-8"?>
<!-- Generator: Adobe Illustrator 16.0.0, SVG Export Plug-In . SVG Version: 6.00 Build 0)  -->
<!DOCTYPE svg PUBLIC "-//W3C//DTD SVG 1.1//EN" "http://www.w3.org/Graphics/SVG/1.1/DTD/svg11.dtd">
<svg version="1.1" id="Calque_1" xmlns="http://www.w3.org/2000/svg" xmlns:xlink="http://www.w3.org/1999/xlink" x="0px" y="0px"
	 width="76.5px" height="24px" viewBox="0 87.5 76.5 24" enable-background="new 0 87.5 76.5 24" xml:space="preserve">
<g>
	<path fill="#EF3230" d="M8.25,103.99v-8.979h5.555v1.497H9.95v2.386h3.558v1.496H9.95v3.602h-1.7V103.99z"/>
	<path fill="#EF3230" d="M21.811,101.361c0,1.495-0.862,2.764-3.396,2.764c-2.536,0-3.398-1.269-3.398-2.764v-3.721
		c0-1.496,0.862-2.766,3.398-2.766c2.533,0,3.396,1.27,3.396,2.766V101.361z M16.716,101.267c0,0.849,0.431,1.36,1.699,1.36
		c1.266,0,1.696-0.512,1.696-1.36v-3.532c0-0.85-0.431-1.361-1.696-1.361c-1.269,0-1.699,0.513-1.699,1.361V101.267z"/>
	<path fill="#EF3230" d="M29.01,103.99l-2.062-2.966H25.33v2.966h-1.698v-8.979h3.681c2.09,0,2.857,0.85,2.857,2.428v1.174
		c0,1.077-0.404,1.832-1.35,2.17l2.226,3.209H29.01V103.99z M27.243,96.508h-1.914v3.047h1.914c0.931,0,1.228-0.338,1.228-1.094
		V97.57C28.471,96.818,28.147,96.508,27.243,96.508z"/>
	<path fill="#EF3230" d="M31.988,97.479c0-1.646,0.958-2.604,3.194-2.604c0.836,0,1.699,0.108,2.441,0.297l-0.189,1.471
		c-0.729-0.135-1.578-0.229-2.197-0.229c-1.174,0-1.55,0.404-1.55,1.361v3.451c0,0.956,0.376,1.359,1.55,1.359
		c0.619,0,1.469-0.094,2.197-0.229l0.189,1.471c-0.742,0.188-1.605,0.297-2.441,0.297c-2.236,0-3.194-0.959-3.194-2.604V97.479z"/>
	<path fill="#EF3230" d="M38.836,97.479c0-1.646,0.957-2.604,3.195-2.604c0.836,0,1.697,0.108,2.439,0.297l-0.188,1.471
		c-0.728-0.135-1.577-0.229-2.197-0.229c-1.173,0-1.55,0.404-1.55,1.361v3.451c0,0.956,0.377,1.359,1.55,1.359
		c0.62,0,1.47-0.094,2.197-0.229l0.188,1.471c-0.742,0.188-1.604,0.297-2.439,0.297c-2.238,0-3.195-0.959-3.195-2.604V97.479z"/>
	<path fill="#EF3230" d="M51.225,102.129h-3.33l-0.565,1.861h-1.78l2.833-8.979h2.372l2.831,8.979h-1.778L51.225,102.129z
		 M48.312,100.662h2.479l-1.227-4.248L48.312,100.662z"/>
	<path fill="#EF3230" d="M57.371,104.125c-1.025,0-2.211-0.258-2.805-0.539l0.297-1.336c0.836,0.258,1.646,0.418,2.533,0.418
		c1.228,0,1.431-0.256,1.431-1.119c0-0.997-0.027-1.078-1.646-1.43c-2.172-0.483-2.467-0.902-2.467-2.804
		c0-1.632,0.74-2.44,3.02-2.44c0.781,0,1.727,0.097,2.615,0.297l-0.188,1.43c-0.741-0.161-1.618-0.27-2.399-0.27
		c-1.146,0-1.348,0.242-1.348,1.024c0,1.024,0.025,1.052,1.577,1.429c2.413,0.58,2.534,0.971,2.534,2.764
		C60.525,103.248,60.025,104.125,57.371,104.125z"/>
	<path fill="#EF3230" d="M64.044,96.508h-2.508v-1.497h6.714v1.497h-2.508v7.482h-1.698V96.508z"/>
</g>
</svg>
