<?xml version="1.0" encoding="utf-8"?>
<!-- Generator: Adobe Illustrator 16.0.0, SVG Export Plug-In . SVG Version: 6.00 Build 0)  -->
<!DOCTYPE svg PUBLIC "-//W3C//DTD SVG 1.1//EN" "http://www.w3.org/Graphics/SVG/1.1/DTD/svg11.dtd">
<svg version="1.1" id="Layer_1" xmlns="http://www.w3.org/2000/svg" xmlns:xlink="http://www.w3.org/1999/xlink" x="0px" y="0px"
	 width="283.465px" height="85.039px" viewBox="0 0 283.465 85.039" enable-background="new 0 0 283.465 85.039"
	 xml:space="preserve">
<path fill-rule="evenodd" clip-rule="evenodd" fill="#D20A11" d="M34.609,62.621c-0.085,0-0.226-0.01-0.315-0.025
	c-0.193-0.027-0.232-0.166-0.25-0.342c-0.029-0.273-0.029-0.771-0.029-1.352v-2.525c0-0.066,0.017-0.109,0.047-0.121
	c0.054-0.018,0.151-0.027,0.248-0.027c0.144,0,0.398,0.039,0.628,0.25c0.356,0.316,0.373,0.736,0.373,0.945
	c0,0.643-0.487,1.043-0.841,1.043c-0.138,0-0.176,0.02-0.176,0.072c0,0.045,0.038,0.051,0.074,0.053
	c0.032,0.006,0.102,0.006,0.132,0.006c0.899,0,1.553-0.631,1.553-1.529c0-0.332-0.18-0.621-0.314-0.75
	c-0.11-0.096-0.391-0.354-1.181-0.354c-0.283,0-0.659,0.012-0.908,0.012c-0.181,0-0.579-0.012-0.91-0.012
	c-0.089,0-0.144,0.008-0.144,0.053s0.04,0.053,0.111,0.053c0.087,0,0.195,0.014,0.249,0.025c0.207,0.043,0.257,0.143,0.269,0.352
	s0.011,0.383,0.011,1.342v1.113c0,0.58,0,1.078-0.034,1.348c-0.02,0.18-0.057,0.318-0.182,0.346
	c-0.055,0.016-0.134,0.025-0.226,0.025c-0.077,0-0.106,0.018-0.106,0.045c0,0.053,0.051,0.07,0.129,0.07
	c0.253,0,0.651-0.018,0.801-0.018c0.158,0,0.555,0.018,0.973,0.018c0.071,0,0.115-0.018,0.115-0.07
	C34.708,62.639,34.688,62.621,34.609,62.621 M47.563,60.277l-0.231-0.125c-0.499-0.279-0.584-0.469-0.584-0.709
	c0-0.363,0.357-0.574,0.756-0.574c0.359,0,0.535,0.15,0.617,0.252c0.122,0.137,0.144,0.303,0.144,0.357s0.02,0.084,0.059,0.084
	c0.047,0,0.068-0.047,0.068-0.162c0-0.422,0.02-0.57,0.02-0.645c0-0.035-0.025-0.059-0.078-0.072
	c-0.146-0.027-0.428-0.088-0.787-0.088c-0.773,0-1.404,0.424-1.404,1.076c0,0.48,0.219,0.84,0.875,1.227l0.32,0.189
	c0.491,0.293,0.552,0.521,0.552,0.756c0,0.379-0.292,0.678-0.773,0.678c-0.343,0-0.764-0.129-0.88-0.527
	c-0.038-0.092-0.055-0.209-0.055-0.277c0-0.033-0.005-0.09-0.053-0.09c-0.052,0-0.075,0.057-0.075,0.145
	c-0.002,0.086-0.032,0.424-0.032,0.711c0,0.117,0.02,0.143,0.108,0.184c0.244,0.104,0.583,0.133,0.908,0.133
	c0.294,0,0.659-0.029,0.92-0.217c0.412-0.281,0.558-0.609,0.558-1.006C48.515,61.092,48.292,60.686,47.563,60.277 M45.452,62.621
	c-0.075,0-0.204-0.008-0.279-0.021c-0.164-0.02-0.202-0.105-0.223-0.248c-0.027-0.23-0.027-0.658-0.027-1.18v-0.949
	c0-0.809,0-0.965,0.017-1.131c0.01-0.193,0.055-0.262,0.2-0.297c0.068-0.01,0.112-0.02,0.167-0.02c0.055,0,0.087-0.006,0.087-0.055
	c0-0.037-0.044-0.053-0.109-0.053c-0.216,0-0.579,0.016-0.718,0.016c-0.158,0-0.533-0.016-0.746-0.016
	c-0.085,0-0.128,0.016-0.128,0.053c0,0.049,0.028,0.055,0.085,0.055c0.068,0,0.139,0.01,0.199,0.027
	c0.126,0.039,0.176,0.102,0.193,0.289c0.008,0.166,0.008,0.322,0.008,1.131v0.949c0,0.521,0,0.949-0.029,1.168
	c-0.013,0.158-0.045,0.24-0.162,0.26c-0.026,0.012-0.06,0.012-0.096,0.02c-0.018-0.006-0.035-0.008-0.052-0.008
	c-0.089-0.025-0.287-0.045-0.601-0.357c-0.331-0.336-0.719-0.82-1.212-1.43c0.541-0.436,0.767-0.789,0.767-1.18
	c0-0.367-0.229-0.637-0.391-0.746c-0.293-0.195-0.702-0.23-1.053-0.23c-0.167,0-0.674,0.016-0.866,0.016
	c-0.111,0-0.46-0.016-0.758-0.016c-0.078,0-0.122,0.016-0.122,0.057c0,0.035,0.037,0.051,0.091,0.051c0.08,0,0.18,0.01,0.219,0.02
	c0.182,0.057,0.226,0.109,0.24,0.297c0.01,0.166,0.01,0.322,0.01,1.131v0.949c0,0.498,0,0.918-0.029,1.143
	c-0.017,0.156-0.051,0.266-0.158,0.285c-0.049,0.014-0.112,0.021-0.184,0.021c-0.067,0-0.128-0.008-0.203-0.021
	c-0.1-0.018-0.261-0.084-0.471-0.572c-0.356-0.816-1.283-3.014-1.421-3.307c-0.054-0.125-0.082-0.174-0.162-0.174
	c-0.052,0-0.103,0.066-0.164,0.213l-1.455,3.381c-0.112,0.27-0.21,0.439-0.464,0.473c-0.042,0-0.106,0.008-0.159,0.008
	c-0.044,0-0.063,0.021-0.063,0.062c0,0.035,0.034,0.053,0.098,0.053c0.295,0,0.588-0.018,0.647-0.018
	c0.177,0,0.436,0.018,0.616,0.018c0.058,0,0.09-0.018,0.09-0.053c0-0.041-0.013-0.062-0.081-0.062h-0.077
	c-0.182,0-0.226-0.055-0.226-0.156c0-0.055,0.023-0.193,0.079-0.324l0.297-0.721c0.017-0.027,0.021-0.035,0.054-0.035h1.305
	c0.026,0,0.046,0.008,0.053,0.035l0.434,1.078c0.024,0.068-0.009,0.115-0.054,0.123c-0.058,0.004-0.065,0.021-0.065,0.062
	c0,0.035,0.06,0.035,0.166,0.035c0.467,0.018,0.87,0.018,1.066,0.018c0.061,0,0.102-0.006,0.141-0.006l0.018,0.006
	c0.231,0,0.58-0.018,0.683-0.018c0.08,0,0.549,0.018,0.867,0.018c0.071,0,0.117-0.018,0.117-0.053c0-0.031-0.027-0.062-0.068-0.062
	c-0.073,0-0.19-0.008-0.275-0.021c-0.171-0.02-0.195-0.129-0.216-0.285c-0.026-0.225-0.03-0.645-0.03-1.143V61.1
	c0-0.039,0.02-0.045,0.048-0.045l0.495,0.006c0.039,0,0.072,0.014,0.103,0.045c0.069,0.076,0.304,0.438,0.52,0.725
	c0.315,0.424,0.519,0.678,0.757,0.795c0.15,0.072,0.3,0.111,0.606,0.111h0.529c0.012,0,0.012-0.006,0.012-0.006
	c0.221,0,0.496-0.012,0.595-0.012c0.154,0,0.534,0.018,0.894,0.018c0.072,0,0.112-0.018,0.112-0.053
	C45.542,62.652,45.518,62.621,45.452,62.621 M37.913,61.088h-1.07c-0.022,0-0.026-0.014-0.022-0.039l0.535-1.361
	c0.015-0.018,0.017-0.043,0.033-0.043c0.015,0,0.018,0.025,0.027,0.043l0.524,1.367C37.947,61.074,37.94,61.088,37.913,61.088
	 M41.738,60.697c-0.093,0.078-0.174,0.094-0.395,0.094c-0.139,0-0.297-0.016-0.421-0.055c-0.041-0.018-0.051-0.039-0.051-0.094v-1.6
	c0-0.045,0.01-0.059,0.051-0.074c0.058-0.012,0.19-0.02,0.326-0.02c0.329,0,0.848,0.197,0.848,0.955
	C42.096,60.344,41.906,60.584,41.738,60.697 M23.788,48.721c-0.111,0.438-0.223,1.024-0.218,1.618
	c0.01,1.222,0.393,2.415,2.102,2.772c-0.135-1.047-0.736-2.485-1.085-2.875C24.315,49.861,23.963,49.117,23.788,48.721
	 M56.239,50.236c-0.348,0.39-0.951,1.828-1.085,2.875c1.708-0.357,2.089-1.551,2.11-2.772c0-0.594-0.109-1.181-0.222-1.618
	C56.863,49.117,56.52,49.861,56.239,50.236 M23.639,44.872l0.548-0.524c0,0-0.122,2.062,1.296,2.617
	c0.866,0.335,1.43,0.052,1.752-0.222l-0.501-1.024c-0.212,0.211-0.5,0.358-0.84,0.211c-0.787-0.34-0.319-1.475-0.319-1.475
	l1.66-4.519c0,0,0.841-1.994-0.839-3.427l-0.826-0.564c0,0-1.357-0.583-1.606-1.506c0,0-0.886,2.355-1.02,4.25l0.789-0.746
	c0,0-0.628,1.998-0.534,3.658l0.582-0.428C23.781,41.173,23.384,43.934,23.639,44.872 M53.428,40.017l1.675,4.517
	c0,0,0.461,1.141-0.324,1.477c-0.374,0.164-0.673-0.021-0.9-0.267l-0.436,0.948c0.304,0.325,0.879,0.695,1.748,0.346
	c1.414-0.553,0.769-2.639,0.769-2.639l-1.675-4.542c0,0-0.378-0.752-0.103-1.692c0.289-0.934,0.899-0.934,1.192-0.878
	c0.299,0.071,0.299,0.74,0.299,0.74l-0.195,1.438c-0.137,2.292,1.381,2.983,1.381,2.983c-0.24-0.613-0.414-1.495,0.116-3.342
	c0.522-1.85-0.51-2.29-0.51-2.29c0.481-1.726-0.634-2.357-0.634-2.357c-0.07,1.218-0.728,1.565-0.728,1.565l-0.828,0.567
	C52.597,38.03,53.428,40.017,53.428,40.017 M42.206,52.594c0.078,0.058,0.198,0.146,0.314,0.207
	c0.091,0.057,0.188,0.109,0.257,0.137c0.039,0.016,0.068,0.026,0.083,0.035c0.018,0.01,0.027,0.012,0.027,0.012
	c0.009,0.008,0.009,0.008,0.011,0.008c0.244,0.098,0.916,0.381,1.411,0.908l-0.028-0.684c-0.601-0.273-1.521-0.641-1.974-0.633
	C42.27,52.584,42.236,52.588,42.206,52.594 M37.94,52.992c0.007-0.008,0.007-0.01,0.027-0.02c0.017-0.009,0.044-0.02,0.081-0.035
	c0.073-0.027,0.162-0.08,0.258-0.137c0.114-0.061,0.241-0.149,0.315-0.207c-0.022-0.006-0.052-0.01-0.09-0.01
	c-0.458-0.008-1.381,0.359-1.981,0.633L36.523,53.9c0.484-0.527,1.157-0.811,1.407-0.908H37.94z M55.125,53.499
	c0,0-0.368,0.095-0.86,0.098c0.134-0.828,0.302-1.807,0.397-2.317c0.199-0.985-0.173-1.426-0.173-1.426l-0.56-0.492l-1.325-1.062
	l0.061-0.999l0.486-1.011l0.453-0.95l-1.896-6.179l-0.406-1.197l0.823,0.662c1.072-1.404,0.604-2.907,0.604-2.907
	c0.141,0.038,0.784,1.033,0.784,1.033c0.126-2.176-0.784-3.072-0.784-3.072l1.168,0.297c-0.62-1.539-1.916-2.027-1.916-2.027
	l1.256-0.081c-1.438-1.555-3.353-1.524-3.353-1.524l0.012,0.587h-1.519c-0.484,0-0.567,0.647-0.567,0.647h0.917
	c0.751,0,0.735,0.65,0.735,0.65s-0.79-0.009-1.135,0c-0.423,0.012-0.526-0.4-0.526-0.4H46.21v1.856c0,0,0.706-0.685,1.34-0.641
	c0,0,0.552-0.025,0.497,1.009c0,0-0.048,0.78-0.622,0.78c-0.788,0-1.216-0.746-1.216-0.746s-0.104,0.507,0.13,1.167
	c0.283,0.771-0.096,0.934-0.096,0.934s1.143,0.166,1.618-0.666c0,0,0.176,0.369,0.24,0.725c0.057,0.223,0.084,0.447,0.084,0.669
	c-0.015,1.102-0.578,2.185-1.008,2.854l-1.176,2.965c0,0-0.087,0.182-0.447,0.149l-0.247-0.019l-0.364-2.947l2.187-0.909
	c0.318-0.598,0.614-1.348,0.623-2.056l-3.01,1.38l-0.166-1.296c0,0-0.002-0.033-0.004-0.04c-0.005-0.013-0.01-0.03-0.021-0.035
	c-0.002-0.014-0.012-0.019-0.024-0.034c-0.01-0.006-0.022-0.024-0.034-0.029c-0.009-0.01-0.019-0.012-0.031-0.012
	c-0.011-0.013-0.021-0.02-0.033-0.02c-0.02-0.004-0.032-0.004-0.038-0.004c-0.011-0.008-0.029-0.008-0.042-0.008h-0.007H44.34
	h-0.012l-3.874,0.595l-3.977-0.595h-0.01h-0.009h-0.008c-0.017,0-0.026,0-0.038,0.008c-0.018,0-0.029,0-0.039,0.004
	c-0.009,0-0.022,0.007-0.029,0.02c-0.016,0-0.021,0.002-0.036,0.012c-0.017,0.004-0.024,0.022-0.031,0.029
	c-0.008,0.015-0.025,0.02-0.032,0.034c0,0.005-0.008,0.022-0.015,0.035c-0.004,0.007-0.012,0.02-0.012,0.02l-0.157,1.294
	l-3.503-1.493c0.138,0.425,0.321,0.834,0.518,1.181c0.287,0.508,0.605,0.984,0.711,1.122l2.077,0.751l-0.357,2.894l-0.383,0.035
	c-0.37,0.029-0.453-0.149-0.453-0.149l-1.419-3.583c-0.415-0.562-1.302-1.948-1.312-3.393c0-0.165,0.07-0.501,0.07-0.501
	c0.178-0.934,1.528-0.906,1.528-0.906l1.656,0.211c0,0,0.768-0.917,0.841-0.978c0.073-0.069-0.256-0.659-0.256-0.659l-2.768-0.978
	c-0.107,0.143-0.414,0.521-0.916,0.521c-0.729,0-0.807-0.615-0.807-0.615h1.435c-0.005,0-0.224-0.563-0.754-0.563h-1.125
	l-0.701-0.428l-0.595-0.429l-0.268,0.744l-0.623-0.739c0,0-0.414,1.534-0.484,2.056c-0.111,0.88,0.535,1.135,0.535,1.135
	l-0.794,2.812l0.973-0.499l-0.709,2.642l1.087-0.457l-2.097,7.016c0,0-0.054,0.116-0.145,0.277l0.597,1.212l0.384,0.667l0.06,1.001
	l-1.32,1.056l-0.556,0.495c0,0-0.372,0.44-0.177,1.422c0.112,0.585,0.319,1.631,0.474,2.405c-0.453-0.015-0.781-0.098-0.781-0.098
	v-0.003c-1.149-0.206-1.816-0.787-2.164-1.504c0.254,0.776,0.711,1.337,1.046,1.585c0.528,0.367,1.442,1.903,1.832,2.423
	c0.391,0.443,1.306,0.668,2.417,0.225c1.112-0.369,2.619-1.041,4.517-1.939c1.036-0.544,1.931-0.923,2.502-1.156
	c0.365-0.18,1.855-0.916,2.676-0.918c0.09,0.002,0.177,0.008,0.255,0.039c0.118,0.037,0.258,0.141,0.265,0.305
	c-0.021,0.133-0.091,0.225-0.162,0.298c1.026-0.814,0.052-1.341-0.569-2.396c-0.588-1.044-0.715-1.044-2.155-0.896
	c-0.147,0.021-0.339,0.072-0.569,0.146c-0.161-0.269-0.567-0.617-1.564-0.833l-0.582-0.215c0,0-0.374-0.01-0.286-0.741l0.116-1.67
	c0,0,0.115-0.69-0.596-1.5l-1.069-1.193c-0.017,0.026-0.032,0.042-0.05,0.066c-0.311,0.496-0.628,1.387-0.721,2.893
	c0.297,0.347,0.921,1.066,0.921,1.091c0,0.765,0.037,1.565-0.041,2.892l0.424,0.721c-0.766,0.361-1.539,0.746-2.215,1.095
	c-0.045-0.247-0.292-0.856-1.594-0.373l-0.262-1.318l1.945-1.343c0,0,0.22-0.16,0.325-0.375c0.037-1.084,0.037-1.287,0.037-1.473
	c-0.01-4.276,1.647-4.86,1.75-4.88l0.224,0.281l1.388,1.544c0,0,0.408,0.339,1.123,0.287c0.138-0.006,0.277-0.02,0.397-0.028
	l-0.219,1.792v0.042c0,0.044,0.009,0.063,0.009,0.077c0.005,0.02,0.014,0.039,0.022,0.059c0.01,0.008,0.021,0.025,0.037,0.043
	c0.01,0.017,0.014,0.021,0.032,0.031c0.018,0.003,0.027,0.014,0.044,0.024c0.015,0,0.027,0.009,0.043,0.011
	c0.01,0.003,0.027,0.003,0.044,0.003h0.01h0.01h0.007h0.007l5.143-0.877l5.042,0.877h0.006h0.004h0.007h0.013
	c0.017,0,0.035,0,0.042-0.003c0.021-0.002,0.034-0.011,0.054-0.011c0.015-0.011,0.018-0.021,0.036-0.024
	c0.016-0.01,0.022-0.015,0.038-0.031c0.012-0.018,0.021-0.035,0.034-0.043c0.004-0.02,0.014-0.039,0.02-0.059
	c0.011-0.014,0.011-0.033,0.011-0.061v-0.059l-0.211-1.695c0.08,0.005,0.167,0.01,0.258,0.018c0.723,0.043,1.12-0.285,1.12-0.285
	l0.418-0.468l1.225-1.445c0.102,0.017,1.748,0.604,1.735,4.88c0,0.135,0,0.67-0.002,1.168c0.009,0.088,0.014,0.172,0.011,0.223
	c-0.024,0.338,0.339,0.541,0.339,0.541l1.945,1.342l-0.146,1.559c-1.01-0.472-1.32-0.086-1.397,0.129
	c-0.764-0.389-1.664-0.837-2.553-1.267l0.531-1.419l0.843-2.369c-0.021-2.069-0.408-3.157-0.778-3.74l-1.102,1.239
	c-0.713,0.808-0.602,1.497-0.602,1.497l0.117,1.662c0.092,0.73-0.283,0.75-0.283,0.75l-0.589,0.211
	c-0.867,0.196-1.282,0.479-1.487,0.726c-0.185-0.058-0.352-0.099-0.483-0.12c-1.441-0.147-1.569-0.147-2.161,0.896
	c-0.618,1.055-1.587,1.581-0.568,2.396c-0.072-0.073-0.133-0.165-0.16-0.298c0-0.164,0.144-0.268,0.265-0.305
	c0.083-0.031,0.166-0.037,0.263-0.039c0.812,0.002,2.303,0.738,2.664,0.918c0.579,0.233,1.474,0.612,2.51,1.156
	c1.894,0.898,3.397,1.57,4.508,1.939c1.115,0.443,2.028,0.219,2.416-0.225c0.4-0.52,1.312-2.056,1.835-2.423
	c0.344-0.248,0.793-0.809,1.048-1.585C56.938,52.709,56.277,53.29,55.125,53.499 M40.223,44.942l-4.007,0.538l0.783-7.886
	l3.225,0.417V44.942z M40.638,44.946V38l3.21-0.417l0.799,7.906L40.638,44.946z M38.719,52.982
	c-0.065,0.045-0.122,0.073-0.182,0.113c-0.149,0.094-0.315,0.166-0.388,0.208v0.006h-0.013c0,0-0.005,0.003-0.022,0.013
	c-0.013,0.004-0.03,0.007-0.033,0.012c-0.01,0-0.014,0.006-0.02,0.009H38.05c-0.152,0.066-0.495,0.198-0.824,0.438
	c-0.281,0.205-0.561,0.467-0.727,0.785l-0.01,0.322c0.654,1.484,2.356,1.855,3.925,1.855c1.569,0,3.271-0.371,3.925-1.855
	l-0.012-0.322c-0.172-0.318-0.435-0.58-0.722-0.785c-0.338-0.24-0.674-0.372-0.829-0.438h-0.01
	c-0.007-0.003-0.007-0.009-0.012-0.009c-0.017-0.005-0.027-0.008-0.039-0.012c-0.017-0.01-0.026-0.01-0.026-0.01V53.31h-0.007
	v-0.006c-0.076-0.042-0.234-0.114-0.396-0.208c-0.055-0.04-0.113-0.068-0.176-0.113c-0.017,0.018-0.67,0.595-1.695,0.595
	C39.379,53.577,38.733,53,38.719,52.982 M19.835,67.486c-0.317,0-0.621-0.125-0.846-0.352c-0.229-0.225-0.356-0.533-0.356-0.852
	V25.511c0-0.315,0.127-0.632,0.356-0.856c0.226-0.218,0.529-0.349,0.846-0.349h40.771c0.319,0,0.632,0.131,0.854,0.349
	c0.227,0.224,0.359,0.542,0.359,0.856v40.772c0,0.318-0.132,0.627-0.359,0.852c-0.222,0.227-0.535,0.352-0.854,0.352H19.835z
	 M20.881,65.242h38.686V26.555H20.881V65.242z M39.853,38.566l-2.453-0.302l-0.048,0.487l2.501,0.259V38.566z M39.836,40.542
	l-2.651-0.102l-0.062,0.541l2.713,0.042V40.542z M39.848,39.534l-2.55-0.202l-0.054,0.505l2.604,0.159V39.534z M39.834,42.028v-0.51
	l-2.76,0.022l-0.053,0.558L39.834,42.028z M36.76,44.691l3.062-0.381l0.005-0.55l-3.001,0.297L36.76,44.691z M36.894,43.362
	l2.933-0.218v-0.527l-2.873,0.15L36.894,43.362z M41.003,39.01l2.497-0.259l-0.052-0.487l-2.445,0.302V39.01z M41.015,41.023
	l2.708-0.042l-0.056-0.541l-2.652,0.102V41.023z M41.015,39.997l2.6-0.159l-0.054-0.505l-2.546,0.202V39.997z M43.836,42.098
	l-0.056-0.558l-2.757-0.022v0.51L43.836,42.098z M44.028,44.058l-2.999-0.297v0.55l3.06,0.381L44.028,44.058z M43.904,42.767
	l-2.879-0.15v0.527l2.938,0.218L43.904,42.767z M70.359,54.398c1.974,3.277,5.066,4.57,6.816,5.102
	c1.612,0.459,3.25,0.613,4.704,0.613c5.594,0,11.188-2.477,11.188-8.635c0-5.744-4.996-7.225-8.541-7.99l-2.718-0.608
	c-2.391-0.456-4.85-0.911-4.85-3.194c0-2.058,2.313-3.272,4.959-3.272c4.218,0,5.927,2.667,6.824,3.992l4.024-3.081
	c-1.86-2.586-4.921-5.434-10.587-5.434c-6.189,0-10.407,3.27-10.407,8.363c0,4.453,3.247,6.087,4.437,6.579
	c0.818,0.34,1.643,0.537,3.318,0.949l3.17,0.686c2.391,0.578,2.459,0.613,3.06,0.842c0.82,0.337,1.979,0.95,1.979,2.664
	c0,0.911-0.34,2.279-2.245,3.08c-0.927,0.377-1.896,0.457-2.83,0.457c-5.552,0-7.529-3.082-8.166-4.074L70.359,54.398z
	 M111.228,45.236c-0.968-2.208-3.351-5.398-8.054-5.398c-5.296,0-9.398,4.26-9.398,10.08c0,6.01,4.066,10.078,9.254,10.078
	c3.237,0,6.935-1.824,8.389-5.928l-3.843-2.061c-0.559,1.525-1.64,3.729-4.477,3.729c-2.94,0-4.698-2.511-4.698-5.933
	c0-3.807,2.047-5.891,4.629-5.891c2.57,0,3.877,1.974,4.208,3.23L111.228,45.236z M112.093,32.836 M112.093,37.444h4.438v-4.609
	h-4.438V37.444z M112.093,40.406 M112.093,59.424h4.438V40.406h-4.438V59.424z M132.896,52.925
	c-0.553,0.796-1.787,2.626-4.843,2.626c-2.945,0-4.773-1.717-5.296-4.725h13.799c-0.038-1.904-0.374-5.208-1.908-7.412
	c-0.367-0.571-2.42-3.577-7.345-3.577c-5.256,0-9.282,3.611-9.282,9.999c0,7.009,4.694,10.159,9.583,10.159
	c3.801,0,6.785-1.674,9.101-4.832L132.896,52.925z M122.91,47.484c0.516-2.591,2.161-3.996,4.547-3.996
	c1.979,0,3.766,1.027,4.176,3.996H122.91z M138.201,59.424h4.506v-8.252c0-1.412,0-3.346,0.715-4.756
	c0.627-1.25,1.972-2.131,3.426-2.131c1.457,0,2.646,0.881,3.062,2.549c0.143,0.537,0.143,1.484,0.143,2.897v9.692h4.441V48.242
	c0-2.473,0-4.53-1.159-6.122c-0.927-1.292-2.753-2.282-4.882-2.282c-1.455,0-3.176,0.494-4.291,1.333
	c-0.781,0.534-1.228,1.144-1.455,1.479v-2.244h-4.506V59.424z M172.863,45.236c-0.963-2.208-3.349-5.398-8.054-5.398
	c-5.288,0-9.4,4.26-9.4,10.08c0,6.01,4.069,10.078,9.258,10.078c3.237,0,6.93-1.824,8.386-5.928l-3.844-2.061
	c-0.559,1.525-1.635,3.729-4.475,3.729c-2.945,0-4.697-2.511-4.697-5.933c0-3.807,2.055-5.891,4.63-5.891
	c2.571,0,3.872,1.974,4.209,3.23L172.863,45.236z M187.87,52.925c-0.552,0.796-1.778,2.626-4.845,2.626
	c-2.943,0-4.774-1.717-5.298-4.725h13.806c-0.043-1.904-0.381-5.208-1.909-7.412c-0.373-0.571-2.426-3.577-7.344-3.577
	c-5.258,0-9.288,3.611-9.288,9.999c0,7.009,4.698,10.159,9.584,10.159c3.803,0,6.789-1.674,9.101-4.832L187.87,52.925z
	 M177.883,47.484c0.518-2.591,2.157-3.996,4.544-3.996c1.981,0,3.769,1.027,4.179,3.996H177.883z M191.638,56.613
	c2.357,2.322,5.642,3.383,8.952,3.383c5.787,0,8.393-3.533,8.393-6.5c0-1.6-0.748-3.123-1.9-4.035
	c-1.197-0.947-2.277-1.143-6.156-1.863c-2.387-0.424-3.768-0.8-3.768-2.167c0-0.987,0.973-1.942,3.102-1.942
	c3.278,0,4.545,1.865,5.066,2.896l3.173-3.007c-0.372-0.46-0.972-1.106-1.909-1.715c-1.264-0.917-3.319-1.824-6.15-1.824
	c-5.108,0-7.971,2.968-7.971,6.196c0,1.713,0.814,4.339,5.254,5.403c0.672,0.188,3.726,0.76,4.36,0.913
	c0.598,0.117,1.938,0.418,1.938,1.636c0,0.953-1.112,2.242-3.689,2.242c-2.571,0-4.253-1.027-5.371-2.436L191.638,56.613z
	 M210.708,59.424h4.959v-9.091h3.839c1.606,0,2.979,0,4.428-0.34c4.709-1.071,6.345-4.91,6.345-8.483
	c0-5.437-3.614-7.799-6.188-8.519c-1.53-0.423-3.06-0.423-4.513-0.423h-8.87V59.424z M219.391,36.869
	c1.605,0,3.324,0.037,4.543,1.105c0.457,0.414,1.314,1.446,1.314,3.425c0,0.95-0.184,3.799-3.243,4.56
	c-0.861,0.232-1.755,0.232-2.796,0.232h-3.542v-9.323H219.391z M248.827,49.837c-0.036-6.31-4.476-9.999-9.659-9.999
	c-5.56,0-9.509,4.186-9.509,9.999c0,5.827,3.879,10.159,9.696,10.159C244.989,59.996,248.827,55.775,248.827,49.837 M244.125,49.76
	c0.111,3.165-1.527,6.053-4.77,6.053c-2.682,0-5.036-2.169-5.036-6.081c0-3.502,2.018-5.785,4.812-5.785
	C242.262,43.947,244.064,46.605,244.125,49.76 M249.606,54.218 M249.606,59.424h4.925v-5.206h-4.925V59.424z"/>
</svg>
